Coordinates
version=1
nRows=54
nColumns=12
inDegrees=yes

Units are S.I. units (second, meters, Newtons, ...)
Angles are in degrees

endheader
time	SC_y	SC_z	SC_x	AC_y	AC_z	AC_x	GH_y	GH_z	GH_yy	EL_x	PS_y
       0.0              -40.73           31.6          41.63          57.81         -7.112          8.167          138.8          11.01          -63.7          64.56          80.49
   0.02795              -40.74           31.6          41.63           57.8         -7.112          8.168          138.8          11.02          -63.7          64.55           80.5
   0.05591              -40.74           31.6          41.63           57.8         -7.111          8.169          138.8          11.03         -63.71          64.55          80.51
   0.08386              -40.74           31.6          41.63           57.8          -7.11           8.17          138.8          11.04         -63.72          64.54          80.52
    0.1118              -40.74          31.59          41.62          57.79          -7.11          8.172          138.8          11.04         -63.72          64.53          80.54
    0.1398              -40.75          31.59          41.62          57.79         -7.109          8.173          138.8          11.05         -63.73          64.52          80.55
    0.1677              -40.75          31.59          41.62          57.78         -7.108          8.174          138.8          11.06         -63.74          64.51          80.56
    0.1957              -40.75          31.59          41.61          57.78         -7.107          8.176          138.8          11.07         -63.75           64.5          80.58
    0.2236              -40.76          31.59          41.61          57.77         -7.106          8.177          138.9          11.08         -63.75          64.49          80.59
    0.2516              -40.76          31.58           41.6          57.77         -7.105          8.179          138.9          11.09         -63.76          64.48          80.61
    0.2795              -40.76          31.58           41.6          57.76         -7.104          8.181          138.9           11.1         -63.77          64.47          80.62
    0.3075              -40.77          31.58          41.59          57.76         -7.103          8.183          138.9          11.12         -63.78          64.45          80.64
    0.3354              -40.77          31.57          41.59          57.75         -7.101          8.185          138.9          11.13          -63.8          64.44          80.66
    0.3634              -40.78          31.57          41.58          57.74           -7.1          8.188          138.9          11.15         -63.81          64.42          80.69
    0.3914              -40.78          31.57          41.57          57.73         -7.098           8.19          138.9          11.16         -63.82          64.41          80.71
    0.4193              -40.79          31.56          41.57          57.72         -7.097          8.193          138.9          11.18         -63.84          64.39          80.74
    0.4473              -40.79          31.56          41.56          57.71         -7.095          8.196          139.0           11.2         -63.85          64.37          80.76
    0.4752               -40.8          31.55          41.55           57.7         -7.093          8.199          139.0          11.22         -63.87          64.35          80.79
    0.5032              -40.81          31.55          41.54          57.69         -7.091          8.203          139.0          11.24         -63.89          64.32          80.83
    0.5311              -40.82          31.54          41.53          57.68         -7.089          8.207          139.0          11.27         -63.91           64.3          80.86
    0.5591              -40.83          31.54          41.52          57.66         -7.086          8.211          139.0           11.3         -63.93          64.27           80.9
     0.587              -40.84          31.53          41.51          57.65         -7.083          8.216          139.1          11.33         -63.96          64.24          80.95
     0.615              -40.85          31.52           41.5          57.63          -7.08          8.221          139.1          11.36         -63.98           64.2           81.0
    0.6429              -40.86          31.51          41.48          57.61         -7.077          8.226          139.1           11.4         -64.01          64.16          81.05
    0.6709              -40.87          31.51          41.46          57.59         -7.073          8.233          139.1          11.44         -64.05          64.12          81.11
    0.6989              -40.89           31.5          41.45          57.57         -7.068           8.24          139.2          11.49         -64.09          64.07          81.18
    0.7268               -40.9          31.48          41.42          57.54         -7.064          8.248          139.2          11.54         -64.13          64.02          81.25
    0.7548              -40.92          31.47           41.4          57.51         -7.058          8.257          139.3           11.6         -64.18          63.96          81.34
    0.7827              -40.95          31.46          41.38          57.48         -7.052          8.267          139.3          11.66         -64.23          63.89          81.43
    0.8107              -40.97          31.44          41.35          57.44         -7.045          8.279          139.4          11.74         -64.29          63.82          81.54
    0.8386               -41.0          31.42          41.31           57.4         -7.037          8.292          139.5          11.82         -64.36          63.73          81.66
    0.8666              -41.03           31.4          41.27          57.35         -7.028          8.307          139.5          11.92         -64.44          63.63          81.81
    0.8945              -41.07          31.37          41.23           57.3         -7.018          8.324          139.6          12.03         -64.53          63.51          81.97
    0.9225              -41.11          31.34          41.17          57.23         -7.005          8.345          139.7          12.17         -64.64          63.38          82.16
    0.9504              -41.16          31.31          41.11          57.15         -6.991          8.368          139.9          12.32         -64.77          63.22          82.38
    0.9784              -41.22          31.27          41.04          57.06         -6.974          8.396          140.0           12.5         -64.92          63.03          82.64
     1.006              -41.29          31.22          40.95          56.95         -6.954           8.43          140.2          12.72         -65.09          62.81          82.95
     1.034              -41.37          31.16          40.85          56.82          -6.93          8.469          140.4          12.98          -65.3          62.55          83.33
     1.062              -41.47           31.1          40.73          56.67         -6.901          8.517          140.6          13.29         -65.56          62.23          83.78
      1.09               -41.6          31.01          40.57          56.47         -6.866          8.576          140.9          13.67         -65.87          61.84          84.33
     1.118              -41.75          30.91          40.38          56.24         -6.822          8.649          141.3          14.14         -66.26          61.35          85.01
     1.146              -41.94          30.78          40.15          55.94         -6.767           8.74          141.8          14.73         -66.74          60.75          85.86
     1.174              -42.19          30.61          39.85          55.57         -6.699          8.854          142.4          15.47         -67.35          59.99          86.93
     1.202              -42.49           30.4          39.48           55.1         -6.611          8.999          143.2          16.41         -68.12          59.03          88.29
      1.23              -42.89          30.13           39.0           54.5           -6.5          9.184          144.1          17.62          -69.1          57.79          90.03
     1.258              -43.39          29.79          38.38          53.72         -6.356          9.423          145.4          19.16         -70.37          56.21          92.27
     1.286              -44.03          29.35          37.59          52.73         -6.173          9.727          147.0          21.14         -71.98          54.18          95.12
     1.314              -44.84           28.8           36.6          51.48         -5.942          10.11          149.0          23.62         -74.01          51.63          98.71
     1.342              -45.83          28.13          35.39          49.97         -5.661          10.58          151.4          26.65         -76.49          48.53          103.1
      1.37              -46.97          27.35          33.99          48.21         -5.336          11.12          154.2          30.15         -79.36          44.94          108.1
     1.398              -48.21          26.51          32.47           46.3         -4.983           11.7          157.3          33.95         -82.47          41.04          113.6
     1.426              -49.45          25.66          30.95           44.4         -4.631          12.29          160.3          37.75         -85.57          37.15          119.1
     1.454              -50.59          24.89          29.55          42.64         -4.305          12.83          163.2          41.26         -88.44          33.55          124.2
     1.482              -51.58          24.21          28.34          41.12         -4.024          13.29          165.6          44.28         -90.92          30.45          128.6
